<?xml version="1.0" encoding="UTF-8" standalone="no"?>
<!-- Created with Inkscape (http://www.inkscape.org/) -->

<svg
   width="210mm"
   height="297mm"
   viewBox="0 0 210 297"
   version="1.1"
   id="svg5"
   xml:space="preserve"
   inkscape:export-filename="bitmap.svg"
   inkscape:export-xdpi="96"
   inkscape:export-ydpi="96"
   xmlns:inkscape="http://www.inkscape.org/namespaces/inkscape"
   xmlns:sodipodi="http://sodipodi.sourceforge.net/DTD/sodipodi-0.dtd"
   xmlns="http://www.w3.org/2000/svg"
   xmlns:svg="http://www.w3.org/2000/svg"><sodipodi:namedview
     id="namedview7"
     pagecolor="#ffffff"
     bordercolor="#000000"
     borderopacity="0.25"
     inkscape:showpageshadow="2"
     inkscape:pageopacity="0.0"
     inkscape:pagecheckerboard="0"
     inkscape:deskcolor="#d1d1d1"
     inkscape:document-units="mm"
     showgrid="false" /><defs
     id="defs2" /><g
     inkscape:label="Layer 1"
     inkscape:groupmode="layer"
     id="layer1"><g
       id="g1083"
       transform="translate(1.8258885,-0.9129453)"><path
         style="fill:#f6f7fd;stroke-width:0.223807"
         d="m 41.072013,217.81942 c 1.46836,0.58624 2.878984,0.35018 6.038736,-1.01054 3.442353,-1.48243 26.238614,-11.35543 29.469681,-12.76324 4.68253,-2.04024 26.63622,-11.55365 27.38367,-11.86645 2.97044,-1.24306 22.38426,-9.62977 27.07972,-11.69835 2.39805,-1.05645 5.00818,-2.19089 5.80028,-2.52096 0.7921,-0.33007 3.456,-1.48119 5.91977,-2.55805 3.67514,-1.60632 10.92952,-4.74977 18.94977,-8.21129 0.72379,-0.31238 4.02773,-1.74194 7.3421,-3.1768 3.31436,-1.43486 6.67076,-2.88248 7.45865,-3.21695 0.78789,-0.33446 2.07098,-0.88821 2.85132,-1.23055 0.78033,-0.34234 1.96619,-0.85196 2.63524,-1.1325 0.66904,-0.28053 1.45671,-0.62331 1.75037,-0.76172 0.29366,-0.13842 1.2397,-0.56796 2.10232,-0.95454 1.8687,-0.83746 2.69228,-1.57488 3.26396,-2.92251 0.80465,-1.89683 0.47295,-3.61433 -0.99323,-5.14269 -0.69202,-0.72136 -1.63538,-1.27717 -4.5629,-2.68835 -2.02978,-0.97844 -4.65496,-2.2494 -5.83372,-2.82436 -1.17877,-0.57495 -3.40356,-1.65061 -4.944,-2.39034 -1.54043,-0.73973 -4.92078,-2.38158 -7.5119,-3.64857 -2.59111,-1.26698 -5.58771,-2.71872 -6.65912,-3.2261 -1.0714,-0.50737 -6.78335,-3.26198 -12.69323,-6.12137 -10.93735,-5.29183 -12.53271,-6.05973 -13.88534,-6.68351 -0.42029,-0.19383 -6.51706,-3.13753 -13.54838,-6.54156 -7.03132,-3.40404 -13.02712,-6.29357 -13.324,-6.42119 -0.29687,-0.12762 -1.74546,-0.83141 -3.21908,-1.56397 -1.47362,-0.73256 -3.267995,-1.60456 -3.987509,-1.93777 -0.719513,-0.33322 -2.555667,-1.22346 -4.080342,-1.9783 -1.524676,-0.75485 -3.504713,-1.7164 -4.400083,-2.13678 -0.895369,-0.42038 -6.85097,-3.290164 -13.23467,-6.3773 C 48.490509,80.693199 47.221079,80.095897 46.11389,79.937604 c -1.10899,-0.158552 -3.216791,0.416211 -3.888117,1.060224 -0.549913,0.527541 -1.290238,1.921733 -1.473842,2.775557 -0.246379,1.145757 -0.265841,1.033781 1.332015,7.664379 0.30972,1.28524 0.756418,3.183969 0.992662,4.219393 0.236244,1.035427 0.517079,2.231423 0.624076,2.65777 0.106999,0.426348 0.473661,1.972823 0.814805,3.436603 0.341143,1.46379 0.724584,3.04982 0.85209,3.52452 0.127505,0.4747 0.324725,1.26244 0.438264,1.75054 0.113541,0.48809 1.153751,4.86336 2.311579,9.72281 1.157827,4.85944 2.627761,11.05547 3.266518,13.76893 0.638757,2.71347 1.313799,5.55495 1.500094,6.31441 3.051691,12.44064 3.038286,12.36814 2.567957,13.88866 -0.434175,1.40365 -3.377563,11.75722 -4.276249,15.04201 -0.302816,1.10682 -1.144317,4.08488 -1.870005,6.61791 -0.725685,2.53303 -1.504218,5.31858 -1.730073,6.1901 -0.225856,0.87152 -0.441339,1.61403 -0.478852,1.65002 -0.03751,0.036 -0.274806,0.84693 -0.52732,1.8021 -0.252514,0.95517 -0.638297,2.35004 -0.857295,3.09971 -0.219,0.74967 -1.31994,4.62114 -2.446537,8.60327 -1.126595,3.98212 -2.763038,9.76306 -3.636541,12.84652 -1.658778,5.85548 -1.827183,6.82555 -1.429659,8.23542 0.317898,1.12747 1.648626,2.52231 2.872552,3.01096 z"
         id="path1087"
         sodipodi:nodetypes="ssssssssssssssssssssssssssssssssssssssssssssssssssssss" /><path
         style="fill:#7ba0fd;stroke-width:0.223807"
         d="m 38.19946,214.80846 c -0.397524,-1.40987 -0.229119,-2.37994 1.429659,-8.23542 0.873503,-3.08346 2.509946,-8.8644 3.636541,-12.84652 1.126597,-3.98213 2.227537,-7.8536 2.446537,-8.60327 0.218998,-0.74967 0.604781,-2.14454 0.857295,-3.09971 0.252514,-0.95517 0.489809,-1.76612 0.52732,-1.8021 0.03751,-0.036 0.252996,-0.7785 0.478852,-1.65002 0.225855,-0.87152 1.004388,-3.65707 1.730073,-6.1901 0.725688,-2.53303 1.567189,-5.51109 1.870005,-6.61791 0.898686,-3.28479 3.842074,-13.63836 4.276249,-15.04201 0.470329,-1.52052 0.483734,-1.44802 -2.567957,-13.88866 -0.186295,-0.75946 -0.861337,-3.60094 -1.500094,-6.31441 -0.638757,-2.71346 -2.108691,-8.90949 -3.266518,-13.76893 -1.157828,-4.85945 -2.198038,-9.23472 -2.311579,-9.72281 -0.113539,-0.4881 -0.310759,-1.27584 -0.438264,-1.75054 -0.127506,-0.4747 -0.510947,-2.06073 -0.85209,-3.52452 -0.341144,-1.46378 -0.707806,-3.010255 -0.814805,-3.436603 -0.106997,-0.426347 -0.387832,-1.622343 -0.624076,-2.65777 -0.236244,-1.035424 -0.682942,-2.934153 -0.992662,-4.219393 -1.597856,-6.630598 -1.578394,-6.518622 -1.332015,-7.664379 0.183604,-0.853824 0.923929,-2.248016 1.473842,-2.775557 0.671326,-0.644013 2.779127,-1.218776 3.888117,-1.060224 1.107189,0.158293 2.376619,0.755595 30.126206,14.175206 6.3837,3.087136 12.339301,5.95692 13.23467,6.3773 0.89537,0.42038 2.875407,1.38193 4.400083,2.13678 1.524675,0.75484 3.360829,1.64508 4.080342,1.9783 0.719514,0.33321 2.513889,1.20521 3.987509,1.93777 1.47362,0.73256 2.92221,1.43635 3.21908,1.56397 0.29688,0.12762 6.29268,3.01715 13.324,6.42119 7.03132,3.40403 13.12809,6.34773 13.54838,6.54156 1.35263,0.62378 2.94799,1.39168 13.88534,6.68351 5.90988,2.85939 11.62183,5.614 12.69323,6.12137 1.07141,0.50738 4.06801,1.95912 6.65912,3.2261 2.59112,1.26699 5.97147,2.90884 7.5119,3.64857 1.54044,0.73973 3.76523,1.81539 4.944,2.39034 1.17876,0.57496 3.80394,1.84592 5.83372,2.82436 2.92752,1.41118 3.87088,1.96699 4.5629,2.68835 1.46618,1.52836 1.79788,3.24586 0.99323,5.14269 -0.57168,1.34763 -1.39526,2.08505 -3.26396,2.92251 -0.86262,0.38658 -1.80866,0.81612 -2.10232,0.95454 -0.29366,0.13841 -1.08133,0.48119 -1.75037,0.76172 -0.66905,0.28054 -1.85491,0.79016 -2.63524,1.1325 -0.78034,0.34234 -2.06343,0.89609 -2.85132,1.23055 -0.78789,0.33447 -4.14429,1.78209 -7.45865,3.21695 -3.31437,1.43486 -6.61831,2.86442 -7.3421,3.1768 -8.02025,3.46152 -15.27463,6.60497 -18.94977,8.21129 -2.46377,1.07686 -5.12767,2.22798 -5.91977,2.55805 -0.7921,0.33007 -3.40223,1.46451 -5.80028,2.52096 -4.69546,2.06858 -24.10928,10.45529 -27.07972,11.69835 -0.74745,0.3128 -22.70114,9.82621 -27.38367,11.86645 -3.231067,1.40781 -26.027328,11.28081 -29.469681,12.76324 -3.159752,1.36072 -4.570376,1.59678 -6.038736,1.01054 -1.223927,-0.48865 -2.554655,-1.88349 -2.872551,-3.01096 z"
         id="path1085" /></g></g></svg>
